<svg width="1200" height="800" viewBox="0 0 1200 800" xmlns="http://www.w3.org/2000/svg">
  <defs>
    <linearGradient id="bgHome" x1="0" y1="0" x2="1" y2="1">
      <stop offset="0%" stop-color="#f7f8fb" />
      <stop offset="100%" stop-color="#e6eefb" />
    </linearGradient>
  </defs>
  <rect width="1200" height="800" rx="40" fill="url(#bgHome)"/>
  <rect x="80" y="100" width="1040" height="160" rx="24" fill="#ffffff" opacity="0.92"/>
  <text x="120" y="170" font-family="Inter, sans-serif" font-size="44" fill="#1f2a3d" font-weight="700">Biblioteca MARC 21</text>
  <text x="120" y="220" font-family="Inter, sans-serif" font-size="24" fill="#4b5668">Portal principal para gestionar el catálogo de piano latinoamericano.</text>
  <rect x="120" y="280" width="420" height="44" rx="22" fill="#1f2a3d" opacity="0.08"/>
  <rect x="120" y="340" width="380" height="44" rx="22" fill="#1f2a3d" opacity="0.08"/>
  <rect x="120" y="400" width="720" height="420" rx="32" fill="#ffffff" opacity="0.9"/>
  <rect x="160" y="440" width="320" height="28" rx="14" fill="#f1f5f9"/>
  <rect x="160" y="490" width="240" height="28" rx="14" fill="#f1f5f9"/>
  <rect x="160" y="540" width="520" height="28" rx="14" fill="#f1f5f9"/>
  <rect x="160" y="590" width="420" height="28" rx="14" fill="#f1f5f9"/>
  <rect x="620" y="440" width="320" height="300" rx="24" fill="#2f7ef7" opacity="0.12"/>
  <circle cx="760" cy="540" r="42" fill="#2f7ef7" opacity="0.16"/>
</svg>