<svg width="1200" height="800" viewBox="0 0 1200 800" xmlns="http://www.w3.org/2000/svg">
  <defs>
    <linearGradient id="bgManage" x1="0" y1="0" x2="1" y2="1">
      <stop offset="0%" stop-color="#f5f8ff" />
      <stop offset="100%" stop-color="#eef4fb" />
    </linearGradient>
  </defs>
  <rect width="1200" height="800" rx="40" fill="url(#bgManage)"/>
  <rect x="80" y="100" width="1040" height="160" rx="24" fill="#ffffff" opacity="0.92"/>
  <text x="120" y="170" font-family="Inter, sans-serif" font-size="42" fill="#1f2a3d" font-weight="700">Gestión de páginas</text>
  <text x="120" y="220" font-family="Inter, sans-serif" font-size="22" fill="#4b5668">Panel administrativo para editar colecciones y recursos musicales.</text>
  <rect x="120" y="310" width="420" height="44" rx="22" fill="#ffffff" stroke="#ced9ea" stroke-width="2"/>
  <rect x="120" y="370" width="340" height="44" rx="22" fill="#ffffff" stroke="#ced9ea" stroke-width="2"/>
  <rect x="120" y="430" width="520" height="44" rx="22" fill="#ffffff" stroke="#ced9ea" stroke-width="2"/>
  <rect x="120" y="500" width="740" height="240" rx="28" fill="#1f2a3d" opacity="0.06"/>
  <rect x="140" y="530" width="220" height="22" rx="11" fill="#eef4ff"/>
  <rect x="140" y="570" width="300" height="22" rx="11" fill="#eef4ff"/>
  <rect x="140" y="610" width="180" height="22" rx="11" fill="#eef4ff"/>
  <rect x="140" y="650" width="240" height="22" rx="11" fill="#eef4ff"/>
  <rect x="140" y="690" width="360" height="22" rx="11" fill="#eef4ff"/>
</svg>