<svg width="1200" height="800" viewBox="0 0 1200 800" xmlns="http://www.w3.org/2000/svg">
  <defs>
    <linearGradient id="bgSearch" x1="0" y1="0" x2="1" y2="1">
      <stop offset="0%" stop-color="#ffffff" />
      <stop offset="100%" stop-color="#f2f6ff" />
    </linearGradient>
  </defs>
  <rect width="1200" height="800" rx="40" fill="url(#bgSearch)"/>
  <rect x="80" y="100" width="1040" height="160" rx="24" fill="#1f2a3d" opacity="0.06"/>
  <text x="120" y="170" font-family="Inter, sans-serif" font-size="42" fill="#1f2a3d" font-weight="700">Búsqueda avanzada</text>
  <text x="120" y="220" font-family="Inter, sans-serif" font-size="22" fill="#4b5668">Filtra por compositor, soporte, nivel bibliográfico y localización.</text>
  <rect x="120" y="300" width="960" height="68" rx="34" fill="#ffffff" stroke="#dce7f4" stroke-width="2"/>
  <rect x="150" y="322" width="240" height="28" rx="14" fill="#f4f8ff"/>
  <rect x="150" y="378" width="160" height="28" rx="14" fill="#f4f8ff"/>
  <rect x="150" y="434" width="680" height="220" rx="28" fill="#ffffff" stroke="#dce7f4" stroke-width="2"/>
  <rect x="180" y="470" width="220" height="24" rx="12" fill="#eef4ff"/>
  <rect x="180" y="510" width="380" height="24" rx="12" fill="#eef4ff"/>
  <rect x="180" y="550" width="260" height="24" rx="12" fill="#eef4ff"/>
  <rect x="180" y="590" width="300" height="24" rx="12" fill="#eef4ff"/>
  <rect x="180" y="630" width="340" height="24" rx="12" fill="#eef4ff"/>
</svg>