<svg width="1200" height="720" viewBox="0 0 1200 720" fill="none" xmlns="http://www.w3.org/2000/svg">
  <rect width="1200" height="720" rx="32" fill="#06111F"/>
  <rect x="56" y="58" width="1088" height="604" rx="24" fill="#0C1628" stroke="#295C9B" stroke-width="2"/>
  <rect x="96" y="104" width="360" height="48" rx="12" fill="#14263E"/>
  <rect x="96" y="180" width="280" height="18" rx="9" fill="#2D6CD3"/>
  <rect x="96" y="212" width="320" height="18" rx="9" fill="#34527A"/>
  <rect x="96" y="256" width="220" height="160" rx="18" fill="#111D31" stroke="#2F7EF7" stroke-width="2"/>
  <rect x="340" y="256" width="240" height="160" rx="18" fill="#111D31" stroke="#2F7EF7" stroke-width="2"/>
  <rect x="600" y="104" width="504" height="312" rx="22" fill="#0E1A2D" stroke="#2F7EF7" stroke-width="2"/>
  <rect x="636" y="144" width="186" height="16" rx="8" fill="#3E7CF4"/>
  <rect x="636" y="182" width="240" height="14" rx="7" fill="#5FB7FF"/>
  <rect x="636" y="220" width="168" height="14" rx="7" fill="#425B7E"/>
  <rect x="636" y="262" width="420" height="92" rx="16" fill="#14263E"/>
  <rect x="96" y="444" width="1008" height="164" rx="24" fill="#0E1A2D" stroke="#2F7EF7" stroke-width="2"/>
  <rect x="136" y="492" width="120" height="72" rx="14" fill="#1F4D94"/>
  <rect x="280" y="492" width="120" height="72" rx="14" fill="#2D6CD3"/>
  <rect x="424" y="492" width="120" height="72" rx="14" fill="#3C8BFF"/>
  <rect x="568" y="492" width="120" height="72" rx="14" fill="#5FB7FF"/>
  <rect x="712" y="492" width="120" height="72" rx="14" fill="#14263E" stroke="#5FB7FF" stroke-width="2"/>
  <rect x="856" y="492" width="120" height="72" rx="14" fill="#14263E" stroke="#5FB7FF" stroke-width="2"/>
  <circle cx="150" cy="278" r="30" fill="#2F7EF7"/>
  <circle cx="386" cy="278" r="30" fill="#FF7A1A"/>
  <path d="M120 278H180" stroke="#DDE8FF" stroke-width="6" stroke-linecap="round"/>
  <path d="M356 278H416" stroke="#DDE8FF" stroke-width="6" stroke-linecap="round"/>
</svg>
